<svg width="70" height="70" viewBox="0 0 70 70" fill="none" xmlns="http://www.w3.org/2000/svg">
<circle cx="35" cy="35" r="35" fill="#7EB4F2"/>
<path d="M35 34.3684C30.211 34.3684 26.3158 30.4732 26.3158 25.6842C26.3158 20.8953 30.211 17 35 17C39.7889 17 43.6842 20.8953 43.6842 25.6842C43.6842 30.4732 39.7889 34.3684 35 34.3684ZM35 18.5789C31.0826 18.5789 27.8947 21.7668 27.8947 25.6842C27.8947 29.6016 31.0826 32.7895 35 32.7895C38.9173 32.7895 42.1052 29.6016 42.1052 25.6842C42.1052 21.7668 38.9173 18.5789 35 18.5789Z" fill="white"/>
<path d="M47.6316 48.579H22.3684C21.0626 48.579 20 47.5163 20 46.2105C20 46.1032 20.0221 43.55 21.9342 41C23.0474 39.5158 24.5711 38.3363 26.4642 37.4963C28.7758 36.4684 31.6479 35.9474 35 35.9474C38.3521 35.9474 41.2242 36.4684 43.5358 37.4963C45.4289 38.3379 46.9526 39.5158 48.0658 41C49.9779 43.55 50 46.1032 50 46.2105C50 47.5163 48.9374 48.579 47.6316 48.579ZM35 37.5263C29.4942 37.5263 25.4316 39.0311 23.2511 41.8779C21.6168 44.0111 21.5805 46.1916 21.5789 46.2137C21.5789 46.6463 21.9326 47 22.3684 47H47.6316C48.0674 47 48.4211 46.6463 48.4211 46.2105C48.4211 46.1916 48.3847 44.0111 46.7489 41.8779C44.5668 39.0311 40.5042 37.5263 35 37.5263Z" fill="white"/>
</svg>
