<svg width="88" height="82" viewBox="0 0 88 82" fill="none" xmlns="http://www.w3.org/2000/svg">
<path fill-rule="evenodd" clip-rule="evenodd" d="M4.00023 47.942C2.29139 47.942 0.771318 48.9395 0.21676 50.4249C-0.337831 51.9102 0.1956 53.5553 1.54448 54.5194L37.5445 80.2506C38.9889 81.283 41.0113 81.283 42.4557 80.2506L78.4556 54.5194C79.8048 53.5553 80.338 51.9102 79.7836 50.4249C79.2288 48.9395 77.7088 47.942 76 47.942L60.0409 47.942C60.4893 28.1701 64.5725 18.6706 69.0128 13.8985C73.234 9.36213 78.1956 8.53615 83.3968 7.67011L83.3984 7.66975C83.8424 7.59586 84.2884 7.52161 84.7352 7.44478C86.7192 7.10366 88.116 5.4576 87.9924 3.60606C87.8688 1.75488 86.2636 0.27828 84.2492 0.16249C73.2572 -0.467557 57.3293 0.478618 44.0029 7.61424C31.071 14.5389 21.128 27.0097 20.0898 47.942L4.00023 47.942Z" fill="#6BCB7A"/>
</svg>
