<svg width="81" height="81" viewBox="0 0 81 81" fill="none" xmlns="http://www.w3.org/2000/svg">
<path fill-rule="evenodd" clip-rule="evenodd" d="M80.6457 50.4095C81.1551 51.8945 80.6651 53.5389 79.4259 54.5028L46.353 80.2261C45.026 81.258 43.168 81.258 41.8411 80.2261L8.76833 54.5025C7.52884 53.5389 7.03899 51.8941 7.54831 50.4091C8.058 48.9245 9.4544 47.9272 11.0243 47.9272L25.6858 47.9272C25.2738 28.1615 21.5227 18.6649 17.4433 13.8942C13.5653 9.35929 9.00719 8.53336 4.22891 7.66751C3.82064 7.5935 3.41054 7.51916 2.99934 7.44225C1.17666 7.10134 -0.106567 5.45586 0.00698272 3.60503C0.120533 1.75417 1.59521 0.277949 3.44582 0.162489C13.544 -0.46747 28.1769 0.478298 40.4197 7.61195C52.3002 14.5344 61.4347 27.0013 62.3884 47.9272L77.1698 47.9272C78.7397 47.9272 80.1362 48.9245 80.6457 50.4095V50.4095Z" fill="#6BCB7A"/>
</svg>
