<svg width="100" height="106" viewBox="0 0 100 106" fill="none" xmlns="http://www.w3.org/2000/svg">
<path d="M100 91.2778C100 99.4103 93.7833 106 86.1111 106H13.8889C6.21944 106 0 99.4103 0 91.2778V14.7222C0 6.58967 6.21944 0 13.8889 0H86.1111C93.7833 0 100 6.58967 100 14.7222V91.2778Z" fill="#673AB7"/>
<path d="M75.0833 57.7111C73.2778 55.0611 70.6667 53.2355 67.3056 52.2639C67.3056 52.2639 70.1389 51.1744 72.6944 47.1111C74.2222 44.52 75 41.3989 75 37.7478C75 31.4172 72.8333 26.5589 68.5 23.2317C64.1667 19.9044 59.2778 17.6667 50.9722 17.6667H25V88.3333H53.9722C61.8333 88.2744 67.75 86.4783 71.7778 83.0333C75.7778 79.5294 77.7778 74.3472 77.7778 67.4278C77.7778 63.6 76.8889 60.3611 75.0833 57.7111ZM41.6667 29.4444C41.6667 29.4444 53.25 29.4444 53.4722 29.4444C57.6944 29.4444 61.1111 33.0661 61.1111 37.5417C61.1111 42.0172 57.6944 45.6389 53.4722 45.6389C53.25 45.6389 41.6667 45.6389 41.6667 45.6389V29.4444ZM55.5556 76.5555H41.6667V58.8889H55.5556C60.1667 58.8889 63.8889 62.8344 63.8889 67.7222C63.8889 72.61 60.1667 76.5555 55.5556 76.5555Z" fill="white"/>
</svg>
