<svg width="101" height="105" viewBox="0 0 101 105" fill="none" xmlns="http://www.w3.org/2000/svg">
<path d="M9.18851 94.5038L0 0H101L91.7992 94.4888L50.4386 105L9.18851 94.5038Z" fill="#1572B6"/>
<path d="M50.4999 96.9675L83.9239 88.4738L91.7869 7.72878H50.4999V96.9675Z" fill="#33A9DC"/>
<path d="M50.4999 41.9662H67.2324L68.386 30.0975H50.4999V18.5062H50.5449H82.2056L81.9029 21.615L78.7978 53.5575H50.4999V41.9662Z" fill="white"/>
<path d="M50.5777 72.0675L50.5204 72.0825L36.439 68.595L35.539 59.3512H28.6946H22.8444L24.6159 77.55L50.5163 84.1425L50.5777 84.1275V72.0675Z" fill="#EBEBEB"/>
<path d="M66.1565 53.0663L64.6346 68.5875L50.5327 72.075V84.135L76.4536 77.55L76.6459 75.5925L78.8428 53.0663H66.1565Z" fill="white"/>
<path d="M50.545 18.5062V25.7062V30.0675V30.0975H20.0421H20.0012L19.7476 27.4912L19.1707 21.615L18.868 18.5062H50.545Z" fill="#EBEBEB"/>
<path d="M50.5 41.9663V49.1663V53.5275V53.5575H36.6354H36.5945L36.3409 50.9513L35.7681 45.075L35.4654 41.9663H50.5Z" fill="#EBEBEB"/>
</svg>
