<svg width="68" height="62" viewBox="0 0 68 62" fill="none" xmlns="http://www.w3.org/2000/svg">
<path fill-rule="evenodd" clip-rule="evenodd" d="M34.3395 44.8846C43.0736 44.8846 50.1539 38.668 50.1539 30.9996C50.1539 23.3312 43.0736 17.1147 34.3395 17.1147C25.6056 17.1147 18.5252 23.3312 18.5252 30.9996C18.5252 38.668 25.6056 44.8846 34.3395 44.8846ZM34.3395 45.3925C43.3931 45.3925 50.7324 38.9486 50.7324 30.9996C50.7324 23.0507 43.3931 16.6068 34.3395 16.6068C25.2861 16.6068 17.9467 23.0507 17.9467 30.9996C17.9467 38.9486 25.2861 45.3925 34.3395 45.3925Z" fill="black"/>
<path fill-rule="evenodd" clip-rule="evenodd" d="M34.3395 59.2778C43.0736 59.2778 50.1539 53.0612 50.1539 45.3928C50.1539 37.7244 43.0736 31.508 34.3395 31.508C25.6056 31.508 18.5252 37.7244 18.5252 45.3928C18.5252 53.0612 25.6056 59.2778 34.3395 59.2778ZM34.3395 59.7857C43.3931 59.7857 50.7324 53.3418 50.7324 45.3928C50.7324 37.4439 43.3931 31 34.3395 31C25.2861 31 17.9467 37.4439 17.9467 45.3928C17.9467 53.3418 25.2861 59.7857 34.3395 59.7857Z" fill="black"/>
<path fill-rule="evenodd" clip-rule="evenodd" d="M34.3395 30.4914C43.0736 30.4914 50.1539 24.2749 50.1539 16.6065C50.1539 8.93804 43.0736 2.72156 34.3395 2.72156C25.6056 2.72156 18.5252 8.93804 18.5252 16.6065C18.5252 24.2749 25.6056 30.4914 34.3395 30.4914ZM34.3395 30.9993C43.3931 30.9993 50.7324 24.5554 50.7324 16.6065C50.7324 8.65752 43.3931 2.21362 34.3395 2.21362C25.2861 2.21362 17.9467 8.65752 17.9467 16.6065C17.9467 24.5554 25.2861 30.9993 34.3395 30.9993Z" fill="black"/>
<path fill-rule="evenodd" clip-rule="evenodd" d="M11.7335 51.302C17.7717 56.8076 27.5618 56.8076 33.6002 51.302C39.6385 45.7965 39.6385 36.8703 33.6002 31.3648C27.5618 25.8592 17.7717 25.8592 11.7335 31.3648C5.69511 36.8703 5.69511 45.7965 11.7335 51.302ZM11.3335 51.6667C17.5927 57.3737 27.7409 57.3737 34.0001 51.6667C40.2593 45.9598 40.2593 36.707 34.0001 31.0001C27.7409 25.2931 17.5927 25.2931 11.3335 31.0001C5.07426 36.707 5.07426 45.9598 11.3335 51.6667Z" fill="black"/>
<path fill-rule="evenodd" clip-rule="evenodd" d="M34.4 30.6353C40.4383 36.1409 50.2284 36.1409 56.2667 30.6353C62.3051 25.1298 62.3051 16.2035 56.2667 10.698C50.2284 5.19243 40.4383 5.19243 34.4 10.698C28.3616 16.2035 28.3616 25.1298 34.4 30.6353ZM34 31C40.2592 36.7069 50.4074 36.7069 56.6667 31C62.9259 25.293 62.9259 16.0402 56.6667 10.3333C50.4074 4.62636 40.2592 4.62636 34 10.3333C27.7408 16.0402 27.7408 25.293 34 31Z" fill="black"/>
<path fill-rule="evenodd" clip-rule="evenodd" d="M2.71814 30.9996C2.71814 38.668 9.53623 44.8846 17.9467 44.8846C26.3573 44.8846 33.1754 38.668 33.1754 30.9996C33.1754 23.3312 26.3573 17.1147 17.9467 17.1147C9.53623 17.1147 2.71814 23.3312 2.71814 30.9996ZM2.16106 30.9996C2.16106 38.9486 9.22856 45.3925 17.9467 45.3925C26.6649 45.3925 33.7325 38.9486 33.7325 30.9996C33.7325 23.0507 26.6649 16.6068 17.9467 16.6068C9.22856 16.6068 2.16106 23.0507 2.16106 30.9996Z" fill="black"/>
<path fill-rule="evenodd" clip-rule="evenodd" d="M34.2895 30.9996C34.2895 38.668 41.1076 44.8846 49.5182 44.8846C57.9287 44.8846 64.7467 38.668 64.7467 30.9996C64.7467 23.3312 57.9287 17.1147 49.5182 17.1147C41.1076 17.1147 34.2895 23.3312 34.2895 30.9996ZM33.7324 30.9996C33.7324 38.9486 40.7999 45.3925 49.5182 45.3925C58.2364 45.3925 65.3039 38.9486 65.3039 30.9996C65.3039 23.0507 58.2364 16.6068 49.5182 16.6068C40.7999 16.6068 33.7324 23.0507 33.7324 30.9996Z" fill="black"/>
<path fill-rule="evenodd" clip-rule="evenodd" d="M11.7333 10.698C5.69498 16.2035 5.69498 25.1298 11.7333 30.6353C17.7716 36.1409 27.5617 36.1409 33.6 30.6353C39.6384 25.1298 39.6384 16.2035 33.6 10.698C27.5617 5.19244 17.7716 5.19244 11.7333 10.698ZM11.3333 10.3333C5.07413 16.0402 5.07413 25.293 11.3333 31C17.5926 36.7069 27.7408 36.7069 34 31C40.2592 25.293 40.2592 16.0402 34 10.3333C27.7408 4.62637 17.5926 4.62637 11.3333 10.3333Z" fill="black"/>
<path fill-rule="evenodd" clip-rule="evenodd" d="M34.4001 31.3648C28.3617 36.8703 28.3617 45.7965 34.4001 51.302C40.4384 56.8076 50.2285 56.8076 56.2669 51.302C62.3052 45.7965 62.3052 36.8703 56.2669 31.3648C50.2285 25.8592 40.4384 25.8592 34.4001 31.3648ZM34.0001 31.0001C27.7409 36.707 27.7409 45.9598 34.0001 51.6667C40.2593 57.3737 50.4076 57.3737 56.6668 51.6667C62.926 45.9598 62.926 36.707 56.6668 31.0001C50.4076 25.2931 40.2593 25.2931 34.0001 31.0001Z" fill="black"/>
</svg>
