<svg width="60" height="105" viewBox="0 0 60 105" fill="none" xmlns="http://www.w3.org/2000/svg">
<path d="M51.2221 80.2045L47.5652 85.2497L46.3722 101.698C46.3722 103.523 39.0325 105 30.0071 105C20.9816 105 13.6419 103.523 13.6419 101.698L12.1377 85.4138L8.27334 80.2045C18.9587 83.7526 40.9517 83.6295 51.2221 80.2045ZM0.389029 28.2549L3.91622 53.9938C5.4464 49.892 9.31075 44.3545 14.2903 42.6728C15.9242 42.119 17.5841 42.119 19.1402 42.8574C20.4888 43.4726 21.63 44.7647 21.7597 45.2774C22.0709 46.6105 21.241 47.1438 20.5926 47.1438C19.8145 47.1438 19.218 46.2004 18.829 45.6466C17.7656 44.1494 16.1577 44.0879 14.4459 45.0723C12.6564 46.0978 11.1003 47.8206 10.011 49.3177C8.68831 51.1225 7.57309 53.1119 6.89877 55.1013C6.50975 56.2498 6.14665 58.0956 6.74316 59.1826C7.00251 59.6338 7.39154 59.921 8.01399 59.921C9.31075 59.921 11.204 58.5674 12.1118 57.8495C13.2788 56.9266 14.7831 55.491 15.3537 54.5681L16.7023 51.3892C17.3766 49.9945 19.2699 50.2407 19.2699 51.3892C19.2699 53.4811 18.3103 54.1784 16.6764 58.5058C15.1721 62.5051 14.7053 63.7972 14.7053 63.7972C14.5237 64.3714 13.8235 65.3354 13.0714 65.3354C12.7601 65.3354 12.5267 65.2533 12.397 65.0892C12.1377 64.8021 12.1636 64.0023 12.1896 63.7972C12.2414 63.1409 13.8235 59.2442 14.0828 58.6289C13.5641 59.0801 13.0195 59.5313 12.423 59.9825C11.0225 61.0284 8.76611 62.4026 6.8469 62.4026C5.96511 62.4026 5.39453 62.218 4.84989 61.9103L6.82097 78.2356C7.33967 79.2611 16.9876 81.7427 29.6958 81.7427C42.43 81.7427 52.078 79.2405 52.5707 78.2356L55.3977 58.834C53.9194 59.9004 52.2076 61.213 50.3144 61.8693C48.9139 62.341 45.8016 62.6487 45.8016 60.7003C45.8016 59.6338 48.1617 57.665 49.5363 56.2908C49.8994 55.9422 50.7553 55.0808 50.7553 54.6296C50.7553 54.0348 49.1991 54.1784 47.7208 55.1423C46.8909 55.6961 46.1129 56.4344 45.4645 57.1317C44.3493 58.3623 43.7527 59.4287 43.26 60.3106C41.652 63.2229 42.1966 62.0744 40.8999 64.8226C39.6031 67.5503 39.8106 67.2427 39.5512 67.6939C39.3178 68.0836 38.9807 68.4117 38.5138 68.6168C38.0211 68.8219 37.3467 68.8014 36.9318 68.5553C36.6984 68.4322 36.5946 68.1656 36.5946 67.7965C36.5946 67.6119 36.6206 67.4273 36.6724 67.2427C37.0615 65.9917 38.6954 63.5306 40.5627 60.2081C40.9777 59.4492 40.8221 59.6748 40.7702 59.7364C39.1622 60.9669 37.9433 61.5617 37.0355 61.8898C35.5313 62.4231 33.6639 62.4231 33.2749 61.049C33.249 60.9669 33.249 60.8849 33.223 60.8028C30.1627 62.6897 26.9208 63.2024 28.036 59.1416C26.843 60.8234 24.7682 62.1975 22.2265 62.1975C21.1632 62.1975 20.3851 61.9103 19.9961 61.1515C19.3996 60.0235 20.3332 58.0956 21.1891 56.2703C21.63 55.3474 22.2265 54.2399 23.0305 52.9479C23.4455 52.2505 24.1198 51.8404 25.0016 52.0249C25.1572 52.066 25.2869 52.107 25.4165 52.1685C26.0909 52.5377 25.8315 53.0914 25.4943 53.6452C24.5088 55.1833 23.6529 56.3113 23.0824 57.9111C22.8489 58.5879 22.5637 59.7569 23.4714 59.7569C24.0938 59.7569 24.6903 59.5928 25.2609 59.2647C26.4539 58.5674 27.4135 57.5214 28.1397 56.4959C28.6584 55.7576 29.2809 54.7937 29.5921 53.9733C29.7218 53.6247 29.8774 53.2965 30.0589 52.9889C30.3442 52.4761 30.7333 51.9429 31.4076 51.9429C31.7447 51.9429 32.03 52.0455 32.2375 52.2505C32.6784 52.7017 32.5747 53.1735 32.3412 53.6657C31.8225 54.8142 31.1223 55.8396 30.5517 57.0907C30.2146 57.8085 29.8515 58.7314 29.8515 59.4903C29.8515 60.1876 30.8111 60.0235 31.6151 59.7364C32.2375 59.5108 32.8599 59.1621 33.3787 58.8135C33.6899 57.8085 33.6121 58.0341 40.2256 44.8262C40.5627 44.1494 41.1852 43.8623 41.8076 43.8623C42.1188 43.8623 42.3782 43.9443 42.6375 44.0879C43.0784 44.3545 43.0784 44.9288 42.8969 45.3595C42.7153 45.7491 42.7413 45.6261 41.7298 47.5129C40.3812 49.9945 39.4994 51.7788 38.3063 54.0553C37.8136 54.9988 36.3093 57.9316 36.05 58.6289C35.8944 59.0801 35.7128 59.8184 36.3093 59.8184C37.7098 59.8184 41.3148 57.1317 42.3004 56.3319C42.3522 56.2703 42.43 56.2498 42.5338 56.2088C42.6894 55.8191 42.845 55.45 42.9747 55.0808C43.3378 54.3015 43.6749 53.3991 44.3493 52.7633C44.5567 52.5582 44.7902 52.4351 45.0495 52.4351C45.7757 52.4351 46.1388 52.6812 46.1388 53.2555C46.1388 53.4811 45.9572 54.3015 45.8535 54.5271C46.2166 54.2194 46.6056 53.9118 47.0206 53.6041C50.9109 50.7534 53.6859 52.2095 53.6859 53.6452C53.6859 55.1628 51.3777 57.2753 50.1069 58.4443C49.6919 58.834 48.8361 59.5518 48.8101 59.7569C48.8101 60.0235 49.0435 60.126 49.3807 60.126C49.8994 60.126 51.0405 59.4082 51.4555 59.1621C52.7523 58.3623 54.5159 57.1317 55.7608 56.2703L59.5992 28.2139C51.6889 31.7209 8.35115 31.7414 0.389029 28.2549ZM59.9623 26.5116C59.9623 30.8185 0 30.8185 0 26.5116C0 24.7068 13.4345 23.2506 29.9811 23.2506C32.3153 23.2506 34.5976 23.2712 36.8021 23.3327L40.0699 13.3447L55.9682 0.116359C56.3313 -0.170769 57.4725 0.0753405 58.5358 0.834178C59.5992 1.59302 60.2476 2.4544 59.9104 2.74153L59.8845 2.76204L45.0236 15.1701L42.43 23.5173C52.7782 24.0505 59.9623 25.1785 59.9623 26.5116ZM41.9632 27.455C41.9632 27.2909 41.7298 27.1474 41.3148 27.0243L41.263 27.1884C41.263 27.455 39.9662 27.6806 38.3842 27.6806C36.8021 27.6806 35.5053 27.455 35.5053 27.1884C35.5053 27.1679 35.5053 27.1474 35.5313 27.1269L35.5831 26.9833C35.1163 27.1064 34.8051 27.2704 34.8051 27.455C34.8051 27.8857 36.4131 28.2139 38.3582 28.2139C40.3552 28.2344 41.9632 27.8857 41.9632 27.455Z" fill="#EE4D25"/>
</svg>
