<svg width="100" height="105" viewBox="0 0 100 105" fill="none" xmlns="http://www.w3.org/2000/svg">
<path d="M9.10085 94.5038L0 0H100L90.887 94.4888L49.9392 105L9.10085 94.5038Z" fill="#E44F26"/>
<path d="M50 97.4551L83.394 88.8974L91.25 7.54491H50V97.4551Z" fill="#F1662A"/>
<path d="M50 43.057H32.8484L31.6658 31.1346H50V19.491H49.9539H17.5L17.8103 22.6176L20.9932 54.7006H50V43.057Z" fill="#EBEBEB"/>
<path d="M50 72.6126L49.9419 72.6271L35.6616 69.2692L34.7489 60.3593H27.8078H21.875L23.6715 77.8971L49.9419 84.2515L50 84.237V72.6126Z" fill="#EBEBEB"/>
<path d="M50 42.7545V54.1601H65.5604L64.0967 68.953L50 72.3847V84.2515L75.9081 77.7683L76.0961 75.8421L79.0643 45.8171L79.375 42.7545H75.9694H50Z" fill="white"/>
<path d="M50 19.491V26.5209V30.7828V30.8084H79.4899H79.5294L79.7746 28.2674L80.3323 22.53L80.625 19.491H50Z" fill="white"/>
</svg>
