<svg width="48" height="50" viewBox="0 0 48 50" fill="none" xmlns="http://www.w3.org/2000/svg">
<path d="M23.7616 50C36.8847 50 47.5232 38.8071 47.5232 25C47.5232 11.1929 36.8847 0 23.7616 0C10.6384 0 0 11.1929 0 25C0 38.8071 10.6384 50 23.7616 50Z" fill="#E4405F"/>
<path d="M23.7616 12.5C20.5361 12.5 20.1324 12.5146 18.8654 12.5732C17.5984 12.6367 16.7398 12.8467 15.9834 13.1543C15.2037 13.4717 14.54 13.9014 13.8764 14.5947C13.2127 15.2881 12.809 15.9863 12.5073 16.8115C12.2149 17.6074 12.0154 18.5156 11.955 19.8437C11.8947 21.1768 11.8854 21.6016 11.8854 24.9951C11.8854 28.3887 11.8994 28.8135 11.955 30.1465C12.0154 31.4746 12.2149 32.3828 12.5073 33.1787C12.809 33.999 13.2174 34.6973 13.8764 35.3955C14.5354 36.0889 15.1991 36.5186 15.9834 36.8359C16.7398 37.1436 17.6031 37.3535 18.8654 37.417C20.1324 37.4805 20.5361 37.4902 23.7616 37.4902C26.987 37.4902 27.3908 37.4756 28.6578 37.417C29.9201 37.3535 30.7833 37.1436 31.5398 36.8359C32.3195 36.5186 32.9831 36.0889 33.6468 35.3955C34.3058 34.7021 34.7142 34.0039 35.0158 33.1787C35.3082 32.3828 35.5078 31.4746 35.5681 30.1465C35.6284 28.8135 35.6377 28.3887 35.6377 24.9951C35.6377 21.6016 35.6238 21.1768 35.5681 19.8437C35.5078 18.5156 35.3082 17.6074 35.0158 16.8115C34.7142 15.9912 34.3058 15.293 33.6468 14.5947C32.9878 13.9014 32.3241 13.4717 31.5398 13.1543C30.7833 12.8467 29.9201 12.6367 28.6578 12.5732C27.3908 12.5146 26.987 12.5 23.7616 12.5ZM23.7616 14.751C26.9313 14.751 27.3119 14.7656 28.5649 14.8242C29.7252 14.8828 30.3517 15.083 30.7694 15.2588C31.3263 15.4834 31.7208 15.7568 32.1385 16.1914C32.5515 16.6309 32.8114 17.0459 33.0249 17.6318C33.1873 18.0713 33.3822 18.7305 33.4333 19.9512C33.489 21.2695 33.5029 21.665 33.5029 25.0049C33.5029 28.3447 33.489 28.7402 33.4286 30.0586C33.3683 31.2793 33.1734 31.9385 33.011 32.3779C32.7882 32.9639 32.5376 33.3789 32.1199 33.8184C31.7069 34.2529 31.3031 34.5264 30.7555 34.751C30.3378 34.9219 29.702 35.127 28.5417 35.1807C27.2794 35.2393 26.9081 35.2539 23.7291 35.2539C20.5501 35.2539 20.1788 35.2393 18.9164 35.1758C17.7562 35.1123 17.1204 34.9072 16.7027 34.7363C16.1412 34.502 15.7513 34.2383 15.3383 33.7988C14.9206 33.3643 14.6561 32.9395 14.4472 32.3633C14.2848 31.9238 14.0899 31.2549 14.0295 30.0342C13.9831 28.7207 13.9692 28.3154 13.9692 24.9902C13.9692 21.6602 13.9831 21.2549 14.0295 19.9268C14.0899 18.7061 14.2802 18.0371 14.4472 17.5977C14.6561 17.002 14.9206 16.5967 15.3383 16.1572C15.7513 15.7227 16.1412 15.4395 16.7027 15.2197C17.1204 15.0488 17.7423 14.8438 18.9025 14.7803C20.1649 14.7314 20.5361 14.7168 23.7152 14.7168L23.7616 14.751ZM23.7616 18.5791C20.3923 18.5791 17.6588 21.4551 17.6588 25C17.6588 28.5449 20.3923 31.4209 23.7616 31.4209C27.1309 31.4209 29.8644 28.5449 29.8644 25C29.8644 21.4551 27.1309 18.5791 23.7616 18.5791ZM23.7616 29.165C21.5757 29.165 19.8029 27.2998 19.8029 25C19.8029 22.7002 21.5757 20.835 23.7616 20.835C25.9475 20.835 27.7203 22.7002 27.7203 25C27.7203 27.2998 25.9475 29.165 23.7616 29.165V29.165ZM31.5305 18.3301C31.5305 19.1602 30.8901 19.8291 30.1057 19.8291C29.3168 19.8291 28.681 19.1553 28.681 18.3301C28.681 17.5049 29.3214 16.8311 30.1057 16.8311C30.8901 16.8262 31.5305 17.5 31.5305 18.3301Z" fill="white"/>
</svg>
