<svg width="22" height="22" viewBox="0 0 22 22" fill="none" xmlns="http://www.w3.org/2000/svg">
<path d="M11.5789 10.4211H16.7895C17.1092 10.4211 17.3684 10.6803 17.3684 11C17.3684 11.3197 17.1092 11.5789 16.7895 11.5789H11.5789V16.7895C11.5789 17.1092 11.3197 17.3684 11 17.3684C10.6803 17.3684 10.4211 17.1092 10.4211 16.7895V11.5789H5.21053C4.89078 11.5789 4.63158 11.3197 4.63158 11C4.63158 10.6803 4.89078 10.4211 5.21053 10.4211H10.4211V5.21053C10.4211 4.89078 10.6803 4.63158 11 4.63158C11.3197 4.63158 11.5789 4.89078 11.5789 5.21053V10.4211ZM2.89474 0C3.21448 0 3.47368 0.259204 3.47368 0.578947C3.47368 0.898691 3.21448 1.15789 2.89474 1.15789C1.93551 1.15789 1.15789 1.93551 1.15789 2.89474C1.15789 3.21448 0.898691 3.47368 0.578947 3.47368C0.259204 3.47368 0 3.21448 0 2.89474C0 1.29602 1.29602 0 2.89474 0ZM19.1053 1.15789C18.7855 1.15789 18.5263 0.898691 18.5263 0.578947C18.5263 0.259204 18.7855 0 19.1053 0C20.704 0 22 1.29602 22 2.89474V2.96601C22 3.28575 21.7408 3.54496 21.4211 3.54496C21.1013 3.54496 20.8421 3.28575 20.8421 2.96601V2.89474C20.8421 1.93551 20.0645 1.15789 19.1053 1.15789ZM0 5.21053C0 4.89078 0.259204 4.63158 0.578947 4.63158C0.898691 4.63158 1.15789 4.89078 1.15789 5.21053V6.36842C1.15789 6.68816 0.898691 6.94737 0.578947 6.94737C0.259204 6.94737 0 6.68816 0 6.36842V5.21053ZM0 8.68421C0 8.36447 0.259204 8.10526 0.578947 8.10526C0.898691 8.10526 1.15789 8.36447 1.15789 8.68421V9.84211C1.15789 10.1618 0.898691 10.4211 0.578947 10.4211C0.259204 10.4211 0 10.1618 0 9.84211V8.68421ZM0 12.1579C0 11.8382 0.259204 11.5789 0.578947 11.5789C0.898691 11.5789 1.15789 11.8382 1.15789 12.1579V13.3158C1.15789 13.6355 0.898691 13.8947 0.578947 13.8947C0.259204 13.8947 0 13.6355 0 13.3158V12.1579ZM0 15.6316C0 15.3118 0.259204 15.0526 0.578947 15.0526C0.898691 15.0526 1.15789 15.3118 1.15789 15.6316V16.7895C1.15789 17.1092 0.898691 17.3684 0.578947 17.3684C0.259204 17.3684 0 17.1092 0 16.7895V15.6316ZM20.8421 5.21053C20.8421 4.89078 21.1013 4.63158 21.4211 4.63158C21.7408 4.63158 22 4.89078 22 5.21053V6.36842C22 6.68816 21.7408 6.94737 21.4211 6.94737C21.1013 6.94737 20.8421 6.68816 20.8421 6.36842V5.21053ZM20.8421 8.68421C20.8421 8.36447 21.1013 8.10526 21.4211 8.10526C21.7408 8.10526 22 8.36447 22 8.68421V9.84211C22 10.1618 21.7408 10.4211 21.4211 10.4211C21.1013 10.4211 20.8421 10.1618 20.8421 9.84211V8.68421ZM20.8421 12.1579C20.8421 11.8382 21.1013 11.5789 21.4211 11.5789C21.7408 11.5789 22 11.8382 22 12.1579V13.3158C22 13.6355 21.7408 13.8947 21.4211 13.8947C21.1013 13.8947 20.8421 13.6355 20.8421 13.3158V12.1579ZM20.8421 15.6316C20.8421 15.3118 21.1013 15.0526 21.4211 15.0526C21.7408 15.0526 22 15.3118 22 15.6316V16.7895C22 17.1092 21.7408 17.3684 21.4211 17.3684C21.1013 17.3684 20.8421 17.1092 20.8421 16.7895V15.6316ZM0 19.1053C0 18.7855 0.259204 18.5263 0.578947 18.5263C0.898691 18.5263 1.15789 18.7855 1.15789 19.1053C1.15789 20.0645 1.93551 20.8421 2.89474 20.8421C3.21448 20.8421 3.47368 21.1013 3.47368 21.4211C3.47368 21.7408 3.21448 22 2.89474 22C1.29602 22 0 20.704 0 19.1053ZM5.21053 1.15789C4.89078 1.15789 4.63158 0.898691 4.63158 0.578947C4.63158 0.259204 4.89078 0 5.21053 0H6.36842C6.68816 0 6.94737 0.259204 6.94737 0.578947C6.94737 0.898691 6.68816 1.15789 6.36842 1.15789H5.21053ZM8.68421 1.15789C8.36447 1.15789 8.10526 0.898691 8.10526 0.578947C8.10526 0.259204 8.36447 0 8.68421 0H9.84211C10.1618 0 10.4211 0.259204 10.4211 0.578947C10.4211 0.898691 10.1618 1.15789 9.84211 1.15789H8.68421ZM12.1579 1.15789C11.8382 1.15789 11.5789 0.898691 11.5789 0.578947C11.5789 0.259204 11.8382 0 12.1579 0H13.3158C13.6355 0 13.8947 0.259204 13.8947 0.578947C13.8947 0.898691 13.6355 1.15789 13.3158 1.15789H12.1579ZM15.6316 1.15789C15.3118 1.15789 15.0526 0.898691 15.0526 0.578947C15.0526 0.259204 15.3118 0 15.6316 0H16.7895C17.1092 0 17.3684 0.259204 17.3684 0.578947C17.3684 0.898691 17.1092 1.15789 16.7895 1.15789H15.6316ZM5.21053 22C4.89078 22 4.63158 21.7408 4.63158 21.4211C4.63158 21.1013 4.89078 20.8421 5.21053 20.8421H6.36842C6.68816 20.8421 6.94737 21.1013 6.94737 21.4211C6.94737 21.7408 6.68816 22 6.36842 22H5.21053ZM8.68421 22C8.36447 22 8.10526 21.7408 8.10526 21.4211C8.10526 21.1013 8.36447 20.8421 8.68421 20.8421H9.84211C10.1618 20.8421 10.4211 21.1013 10.4211 21.4211C10.4211 21.7408 10.1618 22 9.84211 22H8.68421ZM12.1579 22C11.8382 22 11.5789 21.7408 11.5789 21.4211C11.5789 21.1013 11.8382 20.8421 12.1579 20.8421H13.3158C13.6355 20.8421 13.8947 21.1013 13.8947 21.4211C13.8947 21.7408 13.6355 22 13.3158 22H12.1579ZM15.6316 22C15.3118 22 15.0526 21.7408 15.0526 21.4211C15.0526 21.1013 15.3118 20.8421 15.6316 20.8421H16.7895C17.1092 20.8421 17.3684 21.1013 17.3684 21.4211C17.3684 21.7408 17.1092 22 16.7895 22H15.6316ZM19.1053 22C18.7855 22 18.5263 21.7408 18.5263 21.4211C18.5263 21.1013 18.7855 20.8421 19.1053 20.8421C20.0645 20.8421 20.8421 20.0645 20.8421 19.1053C20.8421 18.7855 21.1013 18.5263 21.4211 18.5263C21.7408 18.5263 22 18.7855 22 19.1053C22 20.704 20.704 22 19.1053 22Z" fill="black"/>
</svg>
