<svg width="100" height="106" viewBox="0 0 100 106" fill="none" xmlns="http://www.w3.org/2000/svg">
<path d="M61.4662 0.000705702C61.0937 -0.00870414 60.7211 0.0759893 60.3839 0.254788C58.9557 1.00762 58.0419 2.11806 57.2169 3.08733C56.4007 4.05661 55.7886 4.92237 55.7886 4.92237C55.762 4.96001 55.7354 4.99765 55.7176 5.0353C53.4643 8.63009 52.3554 12.7236 52.311 16.8454C52.2844 20.0167 52.8877 23.2069 54.0587 26.2088C56.9241 33.5019 62.6816 39.1388 69.4505 41.8302H69.4593C69.7698 41.9619 70.0448 42.0654 70.2666 42.1501C70.3021 42.1595 70.3376 42.1689 70.3731 42.1877C70.4174 42.1972 70.515 42.2348 70.6836 42.2819C70.9408 42.376 71.3755 42.5642 72.0143 42.6959C73.8684 43.0912 75.5983 43.2982 77.2217 43.3546C84.4075 43.5899 89.3843 40.6538 92.4893 37.4449C94.0418 35.8357 95.1507 34.17 95.9314 32.8149C96.7209 31.4598 97.3242 30.2365 97.3331 30.2271H97.3419C98.025 29.126 97.75 27.6486 96.7298 26.9052C95.7007 26.1618 94.2991 26.4347 93.5805 27.5169C91.824 30.2553 89.6416 31.8268 86.856 32.5891C84.0704 33.3513 80.6461 33.2384 76.7161 32.2033C76.1838 32.0621 75.5273 31.8363 74.9329 31.601C74.9329 31.601 74.9241 31.601 74.9152 31.5916C74.1966 31.3187 73.4603 30.9893 72.7417 30.6223L72.7328 30.6129L72.7151 30.6035C71.3755 29.8977 70.0803 29.0508 68.9004 28.0721C65.6358 25.3807 63.0986 20.9766 62.0163 16.3749C60.934 11.7732 61.3066 7.08677 63.3204 3.6896C63.7551 2.95559 63.7817 2.03336 63.4002 1.27112C63.0187 0.508871 62.2824 0.0289376 61.4662 0.000705702ZM40.9468 4.81886C40.4234 4.81886 39.9178 5.01647 39.5186 5.36466C35.8813 8.50775 32.4215 13.3918 32.4215 13.3918C32.3949 13.42 32.3771 13.4576 32.3594 13.4953C25.6349 23.8656 26.0519 37.5013 31.1706 48.2575C32.0134 50.0361 32.9715 51.7676 34.0449 53.4144C34.0538 53.4238 34.0538 53.4238 34.0538 53.4238C34.8966 54.7413 35.9168 56.4634 37.3894 57.9032C37.8685 58.4866 38.3653 59.0324 38.8621 59.55C38.9774 59.6818 39.1016 59.8135 39.2169 59.9359C39.2258 59.9547 39.2347 59.9641 39.2435 59.9641C39.7137 60.4534 40.2017 60.9428 40.7073 61.4227L40.7162 61.4321C40.7339 61.4509 40.7605 61.4792 40.7783 61.498L40.8138 61.5168C40.8404 61.5545 40.8759 61.5827 40.9114 61.6109C41.4436 62.1191 41.9848 62.599 42.5437 63.0601C42.5703 63.0884 42.588 63.1072 42.6147 63.126C42.6147 63.126 42.7389 63.2389 42.9961 63.4365C43.5639 63.9071 44.1405 64.3588 44.7083 64.7916C44.7793 64.8481 44.8591 64.9046 44.9301 64.9422C44.9833 64.9799 45.0188 65.0081 45.0631 65.0457H45.072C45.2761 65.1963 45.4801 65.3374 45.6487 65.4598C45.7019 65.4974 45.8261 65.5915 46.0301 65.7327C46.4737 66.0432 46.9084 66.3255 47.3608 66.6173C47.4052 66.6455 47.4584 66.6737 47.5028 66.702C47.5028 66.702 47.5737 66.7396 47.6536 66.7773C47.6713 66.7961 47.6713 66.7867 47.6979 66.8055C48.0528 67.0313 48.4165 67.2572 48.798 67.4642C48.931 67.5489 49.0907 67.6336 49.1351 67.6618C49.1617 67.6806 49.1883 67.6901 49.2149 67.7089C49.4456 67.8312 49.694 67.9724 49.9513 68.1229C50.173 68.2453 50.2351 68.2547 50.2174 68.2547C50.7852 68.5464 51.3263 68.8099 51.832 69.064C51.8675 69.0734 51.9029 69.0922 51.9473 69.111C52.0538 69.1581 52.1425 69.1957 52.2578 69.2522C52.7102 69.4498 53.1804 69.6757 53.6772 69.8733C53.7038 69.8827 53.7393 69.9015 53.7659 69.9109C53.8635 69.9486 54.0321 70.0144 54.2893 70.118C54.2893 70.118 54.2982 70.118 54.2982 70.1274C54.724 70.2873 55.1587 70.4379 55.5846 70.5885C55.8063 70.6732 56.0015 70.739 56.1701 70.8049C56.1701 70.8049 56.1701 70.8049 56.1789 70.8049C56.6491 70.9649 57.3499 71.2754 58.2992 71.4448C58.2992 71.4448 58.2992 71.4354 58.3081 71.4448C61.8921 72.0753 65.2011 72.3294 68.2528 72.2635C80.7348 71.9718 88.8255 66.1373 93.5716 60.397C98.3089 54.6566 99.9058 48.8598 99.9058 48.8598C100.225 47.7211 99.7106 46.5166 98.6992 46.0084C97.6968 45.5002 96.4903 45.8484 95.8516 46.8271C89.819 56.1811 78.0911 60.9898 65.2632 57.4044C64.6954 57.2539 64.1454 57.0845 63.6042 56.8869C63.5688 56.8775 63.5244 56.8586 63.48 56.8492C63.4002 56.8304 63.2937 56.7928 63.1074 56.7269C63.0897 56.7175 63.072 56.7081 63.0631 56.6987C62.6461 56.5575 62.2558 56.4258 61.9009 56.2752C61.9009 56.2752 61.9009 56.2752 61.8921 56.2752C61.688 56.1905 61.5106 56.1246 61.3598 56.0588C60.9074 55.8705 60.4815 55.6917 60.1178 55.5224C60.0912 55.5035 60.0734 55.4941 60.0468 55.4847C59.8517 55.4 59.763 55.353 59.8871 55.4188C59.8339 55.3906 59.7807 55.3718 59.7275 55.3436C59.2307 55.1083 58.7161 54.8542 58.2016 54.5813L58.1661 54.5719C58.1661 54.5625 58.1572 54.5625 58.1484 54.5531C57.8911 54.4119 57.6427 54.2802 57.3854 54.1296C57.3766 54.1296 57.3677 54.1202 57.3499 54.1202C57.1903 54.0261 57.0394 53.9414 56.9064 53.8661V53.8755C56.6136 53.7155 56.312 53.5179 55.9571 53.2921C55.9305 53.2827 55.9128 53.2733 55.8951 53.2638C55.7886 53.198 55.7531 53.1792 55.7354 53.1603H55.7265L55.7088 53.1509C55.2741 52.8686 54.866 52.6051 54.5466 52.3699C54.5023 52.3416 54.449 52.3134 54.4047 52.2852C54.4401 52.304 54.3426 52.2287 54.1119 52.0687C53.8724 51.9087 53.624 51.7394 53.3578 51.5417H53.349C53.3401 51.5323 53.3312 51.5229 53.3135 51.5229C52.8167 51.1371 52.3022 50.723 51.7787 50.2996L51.7344 50.2525C51.6102 50.149 51.5037 50.0643 51.4328 49.9984C51.415 49.989 51.3973 49.9702 51.3795 49.9514C45.7196 45.1614 41.2662 38.6024 39.1726 31.2716V31.2622C37.0701 24.0444 39.2347 15.1798 42.9163 8.43247C43.3244 7.68904 43.3244 6.76682 42.9163 6.01398C42.5082 5.27056 41.7541 4.81886 40.9468 4.81886ZM15.9829 12.0461C15.424 12.0461 14.874 12.2625 14.457 12.6672C14.3328 12.7801 14.2707 12.9024 14.1465 13.0248C9.73748 17.3536 6.59703 22.6234 6.53493 22.7363C-2.60255 36.8238 -1.38718 58.4396 5.43488 73.0352C5.43488 73.0446 5.43488 73.054 5.43488 73.0634C5.61231 73.4587 5.78973 73.8069 5.93168 74.0798C6.00265 74.2491 6.08249 74.4091 6.16233 74.5691C6.33088 74.9737 6.45508 75.1431 6.47283 75.1714C6.57928 75.3878 6.68574 75.6042 6.76558 75.7642C6.77445 75.7831 6.79219 75.8113 6.80107 75.8301C7.00511 76.1783 7.20028 76.5641 7.42206 76.9499C7.42206 76.9594 7.43093 76.9688 7.4398 76.9782C7.53739 77.1476 7.66159 77.3922 7.85675 77.6934C8.10515 78.1263 8.33581 78.5121 8.50436 78.7944C8.51324 78.8132 8.52211 78.8226 8.52211 78.832C8.61082 78.9732 8.71728 79.1614 8.85034 79.359C8.85922 79.3778 8.86809 79.3873 8.87696 79.3967C8.88583 79.4155 8.88583 79.4249 8.90357 79.4531C9.21407 79.9519 9.54231 80.4695 9.90604 81.0058C9.94152 81.0529 9.93265 81.0341 9.95926 81.0811C9.98588 81.1188 9.98588 81.1188 10.0036 81.147C10.0125 81.1564 10.0302 81.1846 10.0391 81.2035L10.048 81.2129C10.0657 81.2411 10.1367 81.3352 10.1367 81.3352C10.1367 81.3446 10.1456 81.354 10.1544 81.354C10.4738 81.8246 10.802 82.3045 11.148 82.775C11.2811 82.9632 11.3964 83.1232 11.4585 83.2079C11.4763 83.2361 11.5029 83.2644 11.5206 83.302C11.8134 83.669 12.0973 84.0454 12.39 84.4313C12.3989 84.4501 12.4078 84.4595 12.4166 84.4689C12.5053 84.5818 12.6207 84.723 12.7449 84.8829C13.1263 85.3723 13.5167 85.8428 13.9159 86.3133C13.9514 86.351 13.9869 86.398 14.0223 86.4357L14.0046 86.4074C14.1199 86.5486 14.324 86.7839 14.528 86.925L14.1022 86.5392C14.5191 87.0285 14.945 87.5085 15.3708 87.9884C15.3797 87.9978 15.3885 87.9978 15.3885 88.0072C15.5393 88.1672 15.6901 88.3272 15.8498 88.4966C16.1515 88.8165 16.4708 89.1647 16.8434 89.5411C16.9854 89.6823 17.1273 89.814 17.2249 89.9269C17.2338 89.9364 17.2338 89.9364 17.2426 89.9364C17.6507 90.3504 18.0943 90.7927 18.5645 91.235C18.6088 91.2632 18.6354 91.3009 18.6709 91.3291C18.6709 91.3385 18.6709 91.3385 18.6709 91.3385C18.7951 91.4514 18.8661 91.5173 18.8483 91.4985C18.875 91.5173 18.8927 91.5455 18.9193 91.5644C19.3363 91.9502 19.7532 92.3266 20.1702 92.703C20.3742 92.8724 20.5516 93.023 20.7025 93.1641C20.7113 93.1641 20.7113 93.1641 20.7202 93.1641C21.0928 93.4935 21.4476 93.7758 21.7848 94.0487C21.7848 94.0581 21.7936 94.0581 21.7936 94.0676C21.9622 94.1993 22.1396 94.3405 22.3348 94.5004C22.3437 94.5098 22.3525 94.5098 22.3614 94.5192C22.7606 94.8392 23.1598 95.1403 23.5413 95.4321C23.6566 95.5262 23.7897 95.6203 23.9316 95.7238C23.9227 95.7144 23.976 95.7614 23.9582 95.752C24.0203 95.7991 24.0824 95.8461 24.1357 95.8838C24.5083 96.1473 24.872 96.4108 25.2535 96.6742C25.2535 96.6837 25.2623 96.6837 25.2623 96.6837C25.4309 96.7966 25.5817 96.9095 25.7325 97.013C25.7414 97.0224 25.7502 97.0318 25.768 97.0413C26.3712 97.4553 26.9656 97.8411 27.5511 98.2176C27.5866 98.2458 27.6221 98.2646 27.6576 98.2834C27.7995 98.3681 27.9326 98.4434 28.0568 98.5187C28.0657 98.5281 28.0657 98.5281 28.0745 98.5375C28.527 98.8104 28.9794 99.0927 29.4585 99.3656L29.4141 99.3374C29.7335 99.5256 30.0174 99.6668 30.248 99.7891C30.5319 99.9585 30.8335 100.137 31.1529 100.307C31.1972 100.335 31.2505 100.363 31.3037 100.391C31.4723 100.457 31.4723 100.476 31.2948 100.363C31.3569 100.41 31.419 100.438 31.4811 100.467C31.5077 100.485 31.6053 100.533 31.7739 100.627C31.7828 100.627 31.7828 100.627 31.7916 100.627C32.315 100.909 32.8296 101.163 33.3619 101.408C33.486 101.474 33.5659 101.511 33.5393 101.492C33.5925 101.521 33.6369 101.549 33.6812 101.568C34.2756 101.85 34.8788 102.113 35.491 102.377C35.4998 102.377 35.5176 102.386 35.5265 102.386C35.5619 102.396 35.7394 102.48 35.9168 102.546C35.9523 102.565 35.9878 102.575 36.0233 102.584C36.041 102.593 36.0321 102.593 36.0499 102.603C36.5378 102.8 37.0257 102.998 37.5136 103.177C37.6467 103.243 37.762 103.28 37.8419 103.318C38.4806 103.544 39.1016 103.76 39.7403 103.967C39.7581 103.977 39.7758 103.986 39.8024 103.996C39.8379 104.005 40.0065 104.061 40.1928 104.118C40.2017 104.118 40.2105 104.127 40.2194 104.127C40.2638 104.137 40.2549 104.137 40.2992 104.156C40.8404 104.334 41.4791 104.588 42.313 104.758C42.3219 104.758 42.3219 104.758 42.3308 104.758C46.7132 105.614 50.7852 106 54.5821 106C87.1399 106.009 97.5815 77.9474 97.5815 77.9474C97.9807 76.8276 97.546 75.5666 96.5613 74.9832C95.5765 74.4091 94.3345 74.682 93.6515 75.6325C84.3809 88.5624 67.756 91.1785 51.5392 87.2262C51.0513 87.1038 50.4747 86.9156 49.8093 86.6992C49.8004 86.6992 49.7827 86.6898 49.7738 86.6898C49.6585 86.6521 49.5343 86.6145 49.4722 86.5862C49.4367 86.5768 49.4012 86.5674 49.3657 86.558C48.798 86.3698 48.2213 86.1628 47.6447 85.9557C47.6358 85.9463 47.6181 85.9463 47.6003 85.9369C47.5649 85.9275 47.5294 85.9181 47.5028 85.8993C47.4673 85.8899 47.4318 85.871 47.3874 85.8616C46.9439 85.6923 46.4648 85.504 45.968 85.297L45.8882 85.2594C45.693 85.1841 45.5245 85.1182 45.4535 85.0806C44.9212 84.8547 44.3712 84.61 43.83 84.356C43.7768 84.3277 43.7324 84.3089 43.6881 84.2901C43.697 84.2901 43.5816 84.243 43.5107 84.2148C43.0405 83.9796 42.5792 83.7443 42.1001 83.4996C42.0646 83.4902 42.038 83.4714 42.0025 83.4526C41.9759 83.4432 41.8961 83.4055 41.7364 83.3114C41.7187 83.302 41.7009 83.2926 41.6743 83.2832C41.3638 83.1232 41.0178 82.935 40.663 82.728C40.6541 82.7186 40.6363 82.7091 40.6275 82.6997C40.3436 82.5492 40.1218 82.4362 39.9621 82.3327C39.9444 82.3327 39.9355 82.3233 39.9178 82.3139C39.5008 82.0786 39.0661 81.8057 38.6048 81.5328L38.7822 81.6458C38.4806 81.4387 38.2677 81.3258 38.1435 81.2505L38.2145 81.2882C37.6378 80.9212 37.0701 80.5541 36.5289 80.1871C36.52 80.1777 36.5112 80.1777 36.5112 80.1683C36.4047 80.1024 36.2805 80.0178 36.1297 79.9048C36.1031 79.8766 36.0676 79.8578 36.041 79.839C35.6684 79.5849 35.2869 79.3026 34.8877 79.0202L34.8611 79.0014C34.7813 78.9355 34.6571 78.8414 34.4885 78.7097C34.1337 78.4462 33.7788 78.1733 33.4151 77.8816H33.3973C33.3796 77.8628 33.3707 77.8533 33.353 77.8345C33.211 77.7122 33.0514 77.5899 32.8917 77.4581C32.5368 77.1664 32.1997 76.8935 31.8981 76.63L31.8537 76.6018C31.6763 76.4418 31.5166 76.3006 31.4013 76.1971C31.4013 76.1971 31.3924 76.1971 31.3835 76.1877C30.9666 75.8301 30.5674 75.4537 30.1327 75.0584L30.319 75.2561C29.9553 74.8232 29.7867 74.7667 29.8754 74.8326L29.9996 74.9455C29.5649 74.5315 29.1214 74.0892 28.6689 73.6375L28.6423 73.6186C28.5713 73.5434 28.456 73.421 28.3052 73.2705L28.2431 73.2046C27.9149 72.8658 27.6132 72.5459 27.3382 72.2541C27.3293 72.2447 27.3293 72.2447 27.3205 72.2353C27.1963 72.1036 27.0809 71.9718 26.939 71.8213C26.5487 71.4072 26.1672 70.9649 25.7857 70.5132C25.768 70.4944 25.7414 70.4661 25.7236 70.4379H25.7148C25.3155 69.9768 24.9252 69.4969 24.526 68.9981C24.526 68.9887 24.526 68.9793 24.5171 68.9699C24.455 68.8946 24.3486 68.7534 24.18 68.5464C23.905 68.1888 23.63 67.8124 23.3284 67.4266L23.3195 67.4172C23.2219 67.276 23.1155 67.1254 23.0534 67.0407L23.0445 67.0313C22.7074 66.5608 22.388 66.0997 22.0686 65.6292L22.0598 65.6198C17.7838 59.3712 14.8296 49.2644 14.0046 39.534C13.1707 29.813 14.599 20.4778 17.7927 15.8855C18.3072 15.1609 18.387 14.1917 18.0056 13.3824C17.6241 12.5637 16.8434 12.0555 15.9829 12.0461ZM57.3145 13.6082C57.4387 14.9257 57.3056 16.2526 57.6072 17.5418C58.929 23.1222 61.8832 28.392 66.1148 31.8833C67.5609 33.069 69.1133 34.0948 70.7191 34.9323C70.7279 34.9417 70.7368 34.9511 70.7457 34.9511C71.5973 35.384 72.4756 35.7792 73.3716 36.1274L73.3538 36.118C74.0458 36.3909 74.8265 36.6732 75.616 36.8803C77.6653 37.4166 79.6436 37.699 81.5598 37.8119C80.2114 38.1036 79.0847 38.593 77.3637 38.5365C76.0152 38.4894 74.5249 38.3106 72.9014 37.9719H72.8925C72.7861 37.953 72.5111 37.8401 72.0409 37.6896C71.9877 37.6707 71.8812 37.6331 71.7659 37.5954C71.4909 37.4919 71.2691 37.4166 71.1005 37.3414C71.0828 37.332 71.0739 37.332 71.0562 37.3225C65.4495 35.0923 60.5969 30.3306 58.2548 24.3549C57.3056 21.9271 56.8265 19.3862 56.8532 16.8925C56.862 15.7726 57.1104 14.6904 57.3145 13.6082ZM34.2312 20.4026C33.6546 24.4773 33.6635 28.6555 34.8256 32.6738C37.2209 41.0491 42.2243 48.361 48.5496 53.7155C48.6827 53.8379 48.8157 53.9508 48.9044 54.0355C48.9222 54.0449 48.9399 54.0637 48.9577 54.0731C49.5254 54.5437 50.1198 55.0236 50.7408 55.4847C50.7497 55.4941 50.7674 55.5035 50.7852 55.5129C51.069 55.72 51.3529 55.9176 51.6634 56.1246C51.6634 56.134 51.6634 56.134 51.6634 56.134C51.6812 56.1434 51.8408 56.2752 52.1425 56.4634C52.5683 56.7551 52.9941 57.028 53.349 57.2633C53.3667 57.2727 53.3756 57.2821 53.3845 57.2915C53.5441 57.3856 53.6506 57.4515 53.695 57.4703C54.0143 57.6773 54.3692 57.9032 54.795 58.1385C54.795 58.1385 54.795 58.1385 54.795 58.1479C54.9636 58.2326 55.1321 58.3267 55.3007 58.4114C55.5757 58.5619 55.8418 58.7125 56.108 58.8631C56.1257 58.8725 56.1434 58.8819 56.1701 58.8913C56.6669 59.1548 57.1991 59.4183 57.7492 59.6724C58.0419 59.8323 58.1661 59.8794 58.246 59.9076C58.7605 60.1523 59.2484 60.3499 59.692 60.5381C59.9138 60.6322 60.1267 60.7169 60.2952 60.7922L60.2864 60.7828C60.7565 60.971 61.2178 61.131 61.6525 61.2815C61.7856 61.338 61.9719 61.3945 62.176 61.4603C62.8058 61.6862 63.4534 61.8932 64.1099 62.072C72.6264 64.4529 80.7437 63.2295 87.6012 59.8135C83.4317 63.7753 77.3814 67.229 68.1552 67.4454C65.4051 67.5113 62.38 67.2854 59.0444 66.6926C59.0355 66.6831 59.0266 66.6831 59.0178 66.6831C58.7427 66.6361 58.2637 66.4479 57.5717 66.2126C57.3766 66.1562 57.208 66.0903 57.0306 66.0244C56.6402 65.8927 56.241 65.7421 55.8507 65.5915L55.833 65.5821C55.7354 65.5445 55.5402 65.4692 55.3095 65.3845L55.2563 65.3563C55.2386 65.3469 55.2386 65.3469 55.2208 65.3469C54.8482 65.1869 54.4579 65.0081 54.0498 64.8199C54.0498 64.8199 54.0498 64.8199 54.0409 64.8199C53.9256 64.7634 53.8103 64.7069 53.6772 64.6599C53.1449 64.3964 52.6393 64.1517 52.1691 63.8977C52.1425 63.8882 52.1159 63.8788 52.0892 63.8694C51.8586 63.7283 51.6013 63.5871 51.3263 63.4459L51.2997 63.4271C51.282 63.4177 51.2731 63.4083 51.2553 63.3989C51.1489 63.3424 51.0336 63.2766 51.0336 63.2766C50.9803 63.2389 50.9271 63.2107 50.8827 63.1825C50.5545 63.0037 50.2174 62.7966 49.898 62.5896C49.8359 62.552 49.7827 62.5237 49.7206 62.4861C49.7206 62.4861 49.6674 62.4579 49.6408 62.4484C49.2504 62.1944 48.8778 61.9497 48.4964 61.6862C48.4875 61.6768 48.4786 61.6674 48.4697 61.658C48.4343 61.6391 48.3189 61.5545 48.1238 61.4227C47.8399 61.2251 47.6092 61.0651 47.4318 60.9334C47.3786 60.8863 47.3165 60.8487 47.2544 60.8016C47.2544 60.8016 47.2455 60.8016 47.2366 60.7922C46.7221 60.397 46.2164 60.0017 45.7374 59.5971C45.7108 59.5783 45.6841 59.5594 45.6664 59.5406C45.6575 59.5312 45.5245 59.4183 45.3559 59.2771C44.8502 58.8537 44.3712 58.4302 43.901 57.9879C43.8921 57.9785 43.8921 57.9785 43.8833 57.9691C43.8655 57.9502 43.8389 57.9314 43.8212 57.9126C43.8123 57.9032 43.7945 57.8938 43.7857 57.8844C43.7679 57.8656 43.7591 57.8561 43.7502 57.8467C43.3066 57.4233 42.8719 56.9904 42.4372 56.5387L42.4106 56.5104C42.2953 56.3881 42.1888 56.2752 42.0912 56.1623C42.0824 56.1623 42.0824 56.1529 42.0735 56.1529C41.6033 55.6541 41.1775 55.1836 40.8049 54.7225C40.7339 54.6378 40.663 54.5625 40.5831 54.4966C39.7137 53.6873 38.7468 52.1628 37.7975 50.6948C37.7887 50.6854 37.7886 50.6854 37.7886 50.676C36.8305 49.2268 35.9789 47.6929 35.2337 46.1025C35.2337 46.0931 35.2337 46.0931 35.2337 46.0837C31.4279 38.113 30.9222 28.4673 34.2312 20.4026ZM9.77296 26.6887C9.2673 30.8952 9.08987 35.3558 9.48021 39.9763C10.3673 50.3937 13.357 61.1027 18.387 68.4429C18.733 68.9699 19.0879 69.4686 19.4516 69.9768C19.5847 70.165 19.6734 70.2779 19.7 70.3156C19.7355 70.372 19.771 70.4285 19.8153 70.4756C20.0992 70.852 20.392 71.2378 20.6936 71.6424C20.7202 71.6707 20.7379 71.6895 20.7646 71.7177C20.8178 71.7836 20.9154 71.9248 21.075 72.1224C21.4831 72.6305 21.909 73.1575 22.3525 73.6751C22.3703 73.6939 22.388 73.7222 22.4058 73.741C22.8227 74.2303 23.2574 74.7197 23.701 75.1996C23.8163 75.3219 23.9405 75.4631 24.0913 75.6231C24.1002 75.6325 24.1002 75.6325 24.1002 75.6325L24.109 75.6419C24.4639 76.0183 24.7921 76.3665 25.1026 76.6865C25.1204 76.7053 25.147 76.7335 25.1647 76.7523C25.2357 76.8182 25.3422 76.9405 25.5285 77.1287C25.5373 77.1382 25.5462 77.1382 25.5551 77.1476C26.0075 77.5993 26.4777 78.0698 26.9656 78.5215C27.0011 78.5685 27.0455 78.6062 27.0898 78.6438C27.2761 78.7944 27.2318 78.8132 26.9479 78.4838C27.01 78.5497 27.0721 78.6156 27.1342 78.6721C27.5777 79.0955 28.0302 79.5096 28.527 79.9331C28.7044 80.0836 28.8463 80.206 28.9528 80.3001C28.9617 80.3095 28.9794 80.3283 28.9883 80.3377C29.3697 80.6671 29.7335 80.9588 30.0706 81.2411C30.0972 81.2693 30.1238 81.2882 30.1416 81.307C30.2924 81.4105 30.4343 81.5328 30.594 81.6552C30.6117 81.6834 30.6295 81.7022 30.6561 81.721C31.0553 82.0222 31.4456 82.3327 31.8715 82.6527C31.9602 82.7186 32.0933 82.8315 32.2618 82.9632C32.2707 82.9632 32.2795 82.9726 32.2973 82.9726C32.7054 83.2738 33.1401 83.5937 33.6102 83.9043C33.7344 83.9984 33.8764 84.1113 34.0627 84.2336C34.0716 84.243 34.0804 84.243 34.0804 84.243C34.6837 84.6571 35.2869 85.0523 35.8724 85.4193C35.8902 85.4288 35.9079 85.4476 35.9345 85.457C36.1297 85.5699 36.2184 85.6264 36.2007 85.617C36.2539 85.6546 36.316 85.7017 36.3781 85.7393C36.8039 85.984 37.2475 86.2569 37.7177 86.5298L37.7266 86.5392C37.7354 86.5392 37.7443 86.5486 37.762 86.5486C38.0548 86.7274 38.3209 86.8686 38.5427 86.9909C38.8887 87.1885 39.2613 87.3955 39.6516 87.5932C39.6605 87.6026 39.6871 87.612 39.6871 87.6214C39.7049 87.6214 39.7049 87.6214 39.7137 87.6308C39.8468 87.6967 39.9976 87.7908 40.2371 87.8943C40.6807 88.1296 41.1331 88.3554 41.6033 88.5813C41.6388 88.6001 41.6743 88.6189 41.7098 88.6377C41.7187 88.6377 41.8695 88.7036 41.9848 88.7601C42.5526 89.0236 43.1558 89.2965 43.7857 89.5599C43.7857 89.5694 43.7945 89.5694 43.7945 89.5694C43.9986 89.654 44.1228 89.7011 44.1494 89.7105C44.1849 89.7293 44.2115 89.7387 44.247 89.7482C44.7704 89.974 45.3204 90.1999 45.9059 90.4163C46.0035 90.4539 46.11 90.4916 46.2075 90.5292C46.7664 90.7363 47.3431 90.9339 47.9375 91.1315C48.1681 91.2162 48.3722 91.2726 48.5496 91.3291C49.1351 91.5173 49.7827 91.7432 50.5279 91.922C62.5486 94.858 75.1281 94.1146 85.3479 88.6001C79.4396 94.8768 69.7521 101.182 54.5821 101.182C51.0779 101.182 47.281 100.824 43.1558 100.015C42.7477 99.9303 42.2243 99.7421 41.5235 99.5162C41.488 99.4974 41.4525 99.488 41.417 99.4786C41.4082 99.4786 41.2662 99.4315 41.0977 99.375L41.0267 99.3562C40.4589 99.168 39.9 98.9704 39.3323 98.7634C39.3145 98.754 39.3056 98.754 39.2879 98.7445C39.2258 98.7257 39.2435 98.7351 39.2613 98.7351C39.2347 98.7257 39.1992 98.7069 39.1726 98.6975C38.6314 98.4905 38.0903 98.274 37.5846 98.067C37.5491 98.0482 37.5048 98.0388 37.4604 98.0199C37.4781 98.0294 37.354 97.9729 37.1677 97.8976L37.1322 97.8788C36.5821 97.6435 36.0499 97.4083 35.5087 97.1542C35.4023 97.1071 35.2603 97.0318 35.2426 97.0318C35.2337 97.0224 35.2248 97.013 35.216 97.013C34.7192 96.7778 34.2579 96.5519 33.8143 96.3167H33.7965C33.7611 96.2884 33.628 96.2225 33.5393 96.1755C33.3352 96.0532 33.3086 96.0532 33.2377 96.0249L33.2022 96.0155C32.9183 95.8555 32.6344 95.6956 32.3594 95.5356C32.3328 95.5168 32.3062 95.4979 32.2795 95.4885C32.0134 95.3474 31.8094 95.2344 31.6497 95.1403C31.6408 95.1309 31.6231 95.1215 31.6142 95.1215C31.2061 94.8863 30.798 94.6416 30.39 94.3875L30.3722 94.3781C30.1948 94.2652 30.0262 94.1617 29.8488 94.0676L29.8044 94.0299C29.2722 93.6911 28.7488 93.3429 28.2253 92.9854C28.0745 92.8724 27.9237 92.7783 27.7729 92.6748L27.764 92.6654C27.764 92.6654 27.764 92.6654 27.7552 92.6654C27.4092 92.4113 27.0721 92.1666 26.7084 91.9126C26.6551 91.8655 26.593 91.8185 26.5309 91.7714C26.4422 91.7149 26.3358 91.6302 26.2116 91.5361C26.2027 91.5267 26.1938 91.5173 26.1849 91.5079C25.8123 91.235 25.4486 90.9527 25.1026 90.6798L25.0938 90.6704H25.0849C24.9163 90.5292 24.7478 90.3881 24.5615 90.2375L24.5526 90.2281C24.1978 89.9458 23.8695 89.6823 23.5679 89.4188L23.559 89.4094C23.3816 89.2588 23.2308 89.1365 23.1066 89.0236C23.1066 89.0141 23.0977 89.0141 23.0977 89.0141C22.6896 88.6471 22.2904 88.2801 21.8912 87.9225C21.838 87.8661 21.7936 87.8284 21.7581 87.8096C21.7227 87.7626 21.6783 87.7249 21.6428 87.6873C21.2347 87.3203 20.8178 86.8968 20.3831 86.4639L20.3742 86.4451C20.2234 86.2945 20.0903 86.1722 19.975 86.0499C19.9661 86.0404 19.9573 86.031 19.9484 86.0216C19.6645 85.7393 19.3718 85.4099 19.0435 85.0618C19.0258 85.0429 19.008 85.0241 18.9903 84.9959C18.8661 84.8735 18.7596 84.77 18.6532 84.6571C18.254 84.2054 17.8636 83.7631 17.4733 83.3114C17.4644 83.302 17.4555 83.2926 17.4555 83.2926C17.4378 83.2644 17.4201 83.2455 17.3934 83.2267C17.0031 82.7562 16.6216 82.2951 16.2579 81.8246C16.2402 81.8057 16.2224 81.7869 16.2047 81.7587C16.1337 81.674 16.0361 81.5517 15.9297 81.4199L15.9208 81.4105C15.9208 81.4011 15.9119 81.3917 15.9031 81.3823C15.628 81.0153 15.3353 80.6294 15.0337 80.2436C14.9272 80.093 14.8296 79.9519 14.7853 79.8766C14.7587 79.8484 14.7409 79.8201 14.7232 79.8013C14.4304 79.3967 14.1377 78.992 13.8449 78.5591L13.8272 78.5309C13.7473 78.4086 13.6941 78.3427 13.7207 78.3803C13.703 78.3521 13.6852 78.3239 13.6675 78.2956C13.6497 78.2674 13.632 78.2486 13.6143 78.2204C13.6054 78.2109 13.5965 78.1921 13.5876 78.1827C13.5876 78.1827 13.5876 78.1827 13.5788 78.1827C13.2771 77.731 12.9755 77.2511 12.6562 76.7429C12.6473 76.7147 12.6295 76.6864 12.6029 76.6582C12.5497 76.5735 12.4787 76.4512 12.39 76.3006L12.3634 76.263C12.0973 75.8019 11.8577 75.4255 11.698 75.1337C11.6803 75.0961 11.6537 75.049 11.6271 75.0114C11.5561 74.8985 11.4674 74.7291 11.3343 74.5032L11.3254 74.4844C11.1392 74.155 10.944 73.8069 10.7399 73.4398V73.421C10.7222 73.4022 10.7222 73.3928 10.7045 73.374C10.6157 73.1858 10.5359 73.0258 10.4738 72.894C10.4472 72.8376 10.4206 72.7905 10.3851 72.7341C10.2875 72.5459 10.252 72.4612 10.3319 72.64C10.2964 72.5553 10.2609 72.48 10.2254 72.4141C10.1456 72.2635 10.0657 72.1224 10.0125 71.9718C9.99475 71.9342 9.97701 71.8965 9.95926 71.8589C9.78184 71.5013 9.6399 71.219 9.53344 70.9931C9.52457 70.9649 9.5157 70.9367 9.50683 70.9178C3.58964 58.2608 2.75574 38.7529 9.77296 26.6887ZM43.9454 58.0726L43.972 58.082C44.0075 58.1385 43.9986 58.1196 44.0429 58.1949C44.0163 58.1479 43.9808 58.1102 43.9454 58.0726ZM17.491 83.3679C17.491 83.3679 17.5176 83.3961 17.5265 83.4055C17.5531 83.4337 17.5443 83.4243 17.5709 83.462L17.5797 83.4714V83.4808C17.5975 83.4902 17.6064 83.5184 17.6152 83.5373C17.5443 83.4337 17.5176 83.3961 17.491 83.3679ZM26.7527 91.9596L26.8325 92.0067C26.6729 91.8843 26.6817 91.8749 26.8325 92.0255C26.8059 91.9973 26.7793 91.9784 26.7527 91.9596Z" fill="black"/>
</svg>
