<svg width="62" height="60" viewBox="0 0 62 60" fill="none" xmlns="http://www.w3.org/2000/svg">
<mask id="mask0_27_365" style="mask-type:alpha" maskUnits="userSpaceOnUse" x="0" y="0" width="62" height="60">
<rect width="62" height="59.1176" rx="17" fill="#C4C4C4"/>
</mask>
<g mask="url(#mask0_27_365)">
<g filter="url(#filter0_f_27_365)">
<ellipse cx="47.8023" cy="46.2116" rx="30.731" ry="29.3024" fill="#97CF26"/>
<ellipse cx="9.34557" cy="11.8668" rx="25.8788" ry="24.6757" fill="#00AAFF"/>
<ellipse cx="14.9521" cy="45.1041" rx="14.422" ry="13.7516" fill="#A169F7"/>
<ellipse cx="45.1238" cy="15.7664" rx="20.2178" ry="19.2779" fill="#FF6163"/>
</g>
</g>
<g filter="url(#filter1_d_27_365)">
<path d="M24.7501 38.853L23.25 35.073H15.69L14.16 38.853H9.36005L17.43 18.843H21.66L29.55 38.853H24.7501ZM17.04 31.533H21.99L19.53 24.813L17.04 31.533ZM31.7928 18.843H48.6228V38.853H44.0028V22.743H36.4128V38.853H31.7928V18.843Z" fill="white"/>
</g>
<defs>
<filter id="filter0_f_27_365" x="-37.5332" y="-33.8088" width="137.067" height="130.323" filterUnits="userSpaceOnUse" color-interpolation-filters="sRGB">
<feFlood flood-opacity="0" result="BackgroundImageFix"/>
<feBlend mode="normal" in="SourceGraphic" in2="BackgroundImageFix" result="shape"/>
<feGaussianBlur stdDeviation="10.5" result="effect1_foregroundBlur_27_365"/>
</filter>
<filter id="filter1_d_27_365" x="5.36011" y="18.843" width="47.2627" height="28.01" filterUnits="userSpaceOnUse" color-interpolation-filters="sRGB">
<feFlood flood-opacity="0" result="BackgroundImageFix"/>
<feColorMatrix in="SourceAlpha" type="matrix" values="0 0 0 0 0 0 0 0 0 0 0 0 0 0 0 0 0 0 127 0" result="hardAlpha"/>
<feOffset dy="4"/>
<feGaussianBlur stdDeviation="2"/>
<feComposite in2="hardAlpha" operator="out"/>
<feColorMatrix type="matrix" values="0 0 0 0 0 0 0 0 0 0 0 0 0 0 0 0 0 0 0.25 0"/>
<feBlend mode="normal" in2="BackgroundImageFix" result="effect1_dropShadow_27_365"/>
<feBlend mode="normal" in="SourceGraphic" in2="effect1_dropShadow_27_365" result="shape"/>
</filter>
</defs>
</svg>
