<svg width="62" height="61" viewBox="0 0 62 61" fill="none" xmlns="http://www.w3.org/2000/svg">
<path d="M55.273 47.4181C56.156 47.4176 57.0304 47.5872 57.8463 47.917C58.6621 48.2467 59.4032 48.7302 60.0276 49.3398C60.6523 49.9494 61.1475 50.6732 61.4854 51.4697C61.8236 52.2666 61.9974 53.1203 61.9974 53.9827C61.9974 54.8448 61.8236 55.6986 61.4854 56.4954C61.1475 57.292 60.6523 58.0157 60.0276 58.6253C59.4032 59.2349 58.6621 59.7185 57.8463 60.0481C57.0304 60.3779 56.156 60.5475 55.273 60.547C53.4902 60.547 51.7806 59.8555 50.5199 58.6243C49.2595 57.3932 48.5512 55.7235 48.5512 53.9827C48.5512 52.2416 49.2595 50.5719 50.5199 49.3408C51.7806 48.1096 53.4902 47.4181 55.273 47.4181ZM30.5583 0.00305935C13.8641 0.230906 0.228698 13.5346 0.00316987 29.8408C-0.0555765 33.8524 0.702754 37.8355 2.23408 41.5583C3.76541 45.2814 6.03919 48.6698 8.92325 51.5269C11.8073 54.3839 15.2441 56.6526 19.0339 58.2012C22.8237 59.7497 26.891 60.5473 30.999 60.547H31.3671C32.7321 60.5324 34.0362 59.9924 34.9964 59.0446C35.9564 58.0966 36.4947 56.8172 36.4945 55.4838C36.4947 54.8133 36.3583 54.1495 36.0936 53.5308C35.8288 52.9122 35.441 52.3512 34.9522 51.88C34.4637 51.409 33.8843 51.0376 33.2475 50.7868C32.6107 50.5363 31.9292 50.4118 31.2426 50.4207C30.9705 50.4207 30.6983 50.4207 30.4234 50.4207C26.3949 50.3088 22.4882 49.0468 19.1858 46.7909C15.8833 44.535 13.3298 41.3837 11.8406 37.7264C10.3514 34.0691 9.99179 30.0659 10.8061 26.2113C11.6204 22.3565 13.573 18.8191 16.4228 16.036C19.2725 13.253 22.8946 11.346 26.8416 10.5508C30.7887 9.75547 34.8877 10.1067 38.6327 11.5611C42.3775 13.0154 45.6044 15.5092 47.9144 18.7344C50.2244 21.9596 51.5163 25.7751 51.631 29.7093C51.631 29.9777 51.631 30.2435 51.631 30.5091C51.6222 31.1795 51.7501 31.8447 52.0069 32.4664C52.2634 33.0879 52.6439 33.6536 53.1263 34.1306C53.6086 34.6074 54.1831 34.9859 54.8163 35.2445C55.4497 35.5028 56.1291 35.6358 56.8155 35.6358C58.1803 35.6358 59.49 35.1104 60.4606 34.1735C61.4311 33.2365 61.9842 31.9634 62 30.6309C62 30.5144 62 30.3978 62 30.2813C62.0008 26.2687 61.1847 22.2962 59.5996 18.5943C58.0142 14.8924 55.6912 11.5352 52.7656 8.71791C49.84 5.90058 46.3703 3.6793 42.5578 2.18319C38.7453 0.687091 34.6665 -0.0539802 30.5583 0.00305935Z" fill="url(#paint0_linear_11_21)"/>
<defs>
<linearGradient id="paint0_linear_11_21" x1="50.3582" y1="6.22836" x2="20.4422" y2="59.2844" gradientUnits="userSpaceOnUse">
<stop stop-color="white" stop-opacity="0.9"/>
<stop offset="0.76" stop-color="white"/>
</linearGradient>
</defs>
</svg>
