<svg width="100" height="106" viewBox="0 0 100 106" fill="none" xmlns="http://www.w3.org/2000/svg">
<path d="M10.8266 34.4927L31.2903 93.904C16.9758 86.5524 7.11694 70.9944 7.11694 53C7.11694 46.3964 8.44758 40.156 10.8266 34.4927V34.4927ZM78.9516 50.7133C78.9516 45.0927 77.0565 41.2032 75.4234 38.1686C73.246 34.4286 71.2097 31.2444 71.2097 27.5044C71.2097 23.3157 74.1935 19.4262 78.4073 19.4262C78.5887 19.4262 78.7702 19.4476 78.9718 19.469C71.3306 12.0532 61.1694 7.52258 50 7.52258C35.0202 7.52258 21.8347 15.6649 14.1532 28.0173C15.1613 28.0601 16.1089 28.0815 16.9153 28.0815C21.3911 28.0815 28.3468 27.5044 28.3468 27.5044C30.6653 27.3548 30.9274 30.9665 28.629 31.2444C28.629 31.2444 26.3105 31.5222 23.7298 31.6718L39.3548 80.9105L48.75 51.0766L42.0766 31.6718C39.7581 31.5222 37.5806 31.2444 37.5806 31.2444C35.2621 31.0948 35.5444 27.3548 37.8427 27.5044C37.8427 27.5044 44.9194 28.0815 49.1331 28.0815C53.6089 28.0815 60.5645 27.5044 60.5645 27.5044C62.8831 27.3548 63.1452 30.9665 60.8468 31.2444C60.8468 31.2444 58.5282 31.5222 55.9476 31.6718L71.4516 80.5472L75.7258 65.3952C77.5403 59.1121 78.9516 54.6028 78.9516 50.7133ZM50.746 56.975L37.8831 96.6181C41.7339 97.8149 45.7863 98.4774 50 98.4774C55 98.4774 59.7782 97.5585 64.2339 95.8915C64.1129 95.6992 64.0121 95.4855 63.9315 95.2718L50.746 56.975ZM87.6411 31.1802C87.8226 32.6335 87.9234 34.1722 87.9234 35.8605C87.9234 40.4766 87.1169 45.6484 84.6573 52.1452L71.5524 92.3012C84.3145 84.4153 92.8831 69.7762 92.8831 53C92.8831 45.0927 90.9879 37.6556 87.6411 31.1802V31.1802ZM100 53C100 82.2355 77.5605 106 50 106C22.4194 106 0 82.2141 0 53C0 23.7645 22.4194 0 50 0C77.5605 0 100 23.7645 100 53ZM97.7016 53C97.7016 25.1109 76.2903 2.43629 50 2.43629C23.6895 2.43629 2.29839 25.1109 2.29839 53C2.29839 80.8891 23.7097 103.564 50 103.564C76.3105 103.564 97.7016 80.8891 97.7016 53Z" fill="#008CFF"/>
</svg>
